<svg width="113" height="20" viewBox="0 0 113 20" fill="none" xmlns="http://www.w3.org/2000/svg">
<rect width="20" height="20" rx="3.33333" fill="#7C3AED"/>
<path d="M9.9616 5C10.4915 5 10.8763 5.09726 11.1156 5.29245C11.372 5.48764 11.5 5.9935 11.5 6.80971C11.5 7.60817 11.3891 8.00755 11.1669 8.00767L11.0388 7.92795C10.9362 7.69725 10.6711 7.58178 10.2437 7.58178L9.62813 7.63507C9.21793 7.63504 8.92719 7.53737 8.75626 7.34219C8.58542 7.14699 8.50003 6.80988 8.5 6.33096C8.5 5.85182 8.61124 5.51452 8.83347 5.31931C9.05571 5.10637 9.43168 5 9.9616 5Z" fill="#D6FFB7"/>
<path d="M9.93614 9.78229C10.5001 9.78231 10.9017 9.89784 11.1411 10.1285C11.3804 10.3414 11.5 10.7143 11.5 11.2467C11.5 12.2226 11.2779 13.0654 10.8335 13.7752C10.4061 14.485 9.92728 14.8935 9.39733 15C9.27777 15 9.21786 14.9731 9.21786 14.9198L9.2692 14.7604C9.66237 14.3523 9.90199 13.8287 9.98748 13.1899L10.0129 12.8701C10.0129 12.5686 9.89324 12.4 9.65401 12.3645H9.52588C9.13282 12.3645 8.85923 12.2758 8.70534 12.0985C8.56859 11.921 8.50001 11.6015 8.5 11.1401C8.5 10.6787 8.59409 10.3414 8.78214 10.1285C8.98729 9.8978 9.37205 9.78229 9.93614 9.78229Z" fill="#D6FFB7"/>
<path d="M28.198 6.77328C28.198 4.29328 30.198 2.61328 33.178 2.61328C35.938 2.61328 37.718 4.15328 37.878 6.65328H35.898C35.798 5.21328 34.778 4.37328 33.158 4.37328C31.338 4.37328 30.158 5.29328 30.158 6.71328C30.158 7.87328 30.818 8.57328 32.178 8.89328L34.558 9.45328C36.918 9.99328 38.118 11.2733 38.118 13.3133C38.118 15.9133 36.098 17.5733 33.018 17.5733C30.078 17.5733 28.118 16.0333 27.998 13.5533H29.998C30.038 14.9333 31.198 15.8133 33.018 15.8133C34.938 15.8133 36.158 14.9133 36.158 13.4733C36.158 12.3333 35.538 11.6133 34.158 11.2933L31.778 10.7533C29.418 10.2133 28.198 8.85328 28.198 6.77328Z" fill="#D6FFB7"/>
<path d="M43.481 17.5733C40.601 17.5733 38.621 15.4933 38.621 12.4533C38.621 9.39328 40.561 7.27328 43.401 7.27328C46.181 7.27328 48.001 9.19328 48.001 12.0933V12.7933L40.441 12.8133C40.581 14.8733 41.661 16.0133 43.521 16.0133C44.981 16.0133 45.941 15.4133 46.261 14.2933H48.021C47.541 16.3933 45.901 17.5733 43.481 17.5733ZM43.401 8.85328C41.761 8.85328 40.721 9.83328 40.481 11.5533H46.121C46.121 9.93328 45.061 8.85328 43.401 8.85328Z" fill="#D6FFB7"/>
<path d="M50.9809 17.3333H49.1009V7.55328H50.7809L50.9609 8.83328C51.4609 7.91328 52.5009 7.27328 53.8809 7.27328C55.4009 7.27328 56.4809 8.03328 56.9809 9.25328C57.4409 8.03328 58.6209 7.27328 60.1409 7.27328C62.3809 7.27328 63.7409 8.67328 63.7409 10.9333V17.3333H61.9009V11.3933C61.9009 9.85328 61.0409 8.97328 59.7209 8.97328C58.3009 8.97328 57.3609 9.97328 57.3609 11.5333V17.3333H55.5009V11.3733C55.5009 9.83328 54.6609 8.99328 53.3409 8.99328C51.9209 8.99328 50.9809 9.97328 50.9809 11.5333V17.3333Z" fill="#D6FFB7"/>
<path d="M66.267 5.23328C65.587 5.23328 65.027 4.67328 65.027 3.99328C65.027 3.29328 65.587 2.75328 66.267 2.75328C66.947 2.75328 67.507 3.29328 67.507 3.99328C67.507 4.67328 66.947 5.23328 66.267 5.23328ZM65.347 17.3333V7.55328H67.227V17.3333H65.347Z" fill="#D6FFB7"/>
<path d="M68.3163 12.4533C68.3163 9.39328 70.2563 7.27328 73.1163 7.27328C75.5763 7.27328 77.2963 8.67328 77.6363 10.8533H75.7563C75.4363 9.61328 74.4363 8.95328 73.1763 8.95328C71.3963 8.95328 70.1763 10.3133 70.1763 12.4333C70.1763 14.5333 71.3163 15.8933 73.0963 15.8933C74.4363 15.8933 75.4363 15.1933 75.7763 14.0333H77.6563C77.2763 16.1533 75.4563 17.5733 73.0963 17.5733C70.2163 17.5733 68.3163 15.5333 68.3163 12.4533Z" fill="#D6FFB7"/>
<path d="M77.9999 12.4333C77.9999 9.41328 80.1599 7.29328 83.0999 7.29328C86.0199 7.29328 88.1799 9.41328 88.1799 12.4333C88.1799 15.4533 86.0199 17.5733 83.0999 17.5733C80.1599 17.5733 77.9999 15.4533 77.9999 12.4333ZM79.8999 12.4333C79.8999 14.4733 81.1999 15.8933 83.0999 15.8933C84.9799 15.8933 86.2999 14.4733 86.2999 12.4333C86.2999 10.3933 84.9799 8.97328 83.0999 8.97328C81.1999 8.97328 79.8999 10.3933 79.8999 12.4333Z" fill="#D6FFB7"/>
<path d="M91.181 17.3333H89.301V2.61328H91.181V17.3333Z" fill="#D6FFB7"/>
<path d="M92.3085 12.4333C92.3085 9.41328 94.4685 7.29328 97.4085 7.29328C100.329 7.29328 102.489 9.41328 102.489 12.4333C102.489 15.4533 100.329 17.5733 97.4085 17.5733C94.4685 17.5733 92.3085 15.4533 92.3085 12.4333ZM94.2085 12.4333C94.2085 14.4733 95.5085 15.8933 97.4085 15.8933C99.2885 15.8933 100.609 14.4733 100.609 12.4333C100.609 10.3933 99.2885 8.97328 97.4085 8.97328C95.5085 8.97328 94.2085 10.3933 94.2085 12.4333Z" fill="#D6FFB7"/>
<path d="M105.45 17.3333H103.57V7.55328H105.27L105.47 9.05328C106.09 7.93328 107.33 7.27328 108.71 7.27328C111.29 7.27328 112.47 8.85328 112.47 11.3533V17.3333H110.59V11.7733C110.59 9.79328 109.67 8.99328 108.23 8.99328C106.47 8.99328 105.45 10.2533 105.45 12.1533V17.3333Z" fill="#D6FFB7"/>
</svg>
